<?xml version="1.0" encoding="UTF-8"?>
<svg xmlns="http://www.w3.org/2000/svg" xmlns:xlink="http://www.w3.org/1999/xlink" width="479.31pt" height="447.64pt" viewBox="0 0 479.31 447.64" version="1.1">
<defs>
<clipPath id="clip1">
  <path d="M 0 0 L 479.308594 0 L 479.308594 447.640625 L 0 447.640625 Z M 0 0 "/>
</clipPath>
<filter id="alpha" filterUnits="objectBoundingBox" x="0%" y="0%" width="100%" height="100%">
  <feColorMatrix type="matrix" in="SourceGraphic" values="0 0 0 0 1 0 0 0 0 1 0 0 0 0 1 0 0 0 1 0"/>
</filter>
<mask id="mask0">
  <g filter="url(#alpha)">
<rect x="0" y="0" width="479.31" height="447.64" style="fill:rgb(0%,0%,0%);fill-opacity:0.699997;stroke:none;"/>
  </g>
</mask>
<clipPath id="clip3">
  <path d="M 0 0 L 479.308594 0 L 479.308594 447.640625 L 0 447.640625 Z M 0 0 "/>
</clipPath>
<clipPath id="clip2">
  <rect width="480" height="448"/>
</clipPath>
<g id="surface7" clip-path="url(#clip2)">
<g clip-path="url(#clip3)" clip-rule="nonzero">
<path style=" stroke:none;fill-rule:nonzero;fill:rgb(100%,100%,100%);fill-opacity:1;" d="M 445.074219 87.542969 C 443.398438 84.75 441.652344 82.007813 439.828125 79.328125 C 415.550781 43.65625 375.136719 19.234375 335.855469 8.175781 C 318.648438 3.320313 300.984375 0.78125 283.347656 0.132813 C 167.667969 -4.070313 125.171875 91.308594 87.902344 115.902344 C 50.632813 140.492188 -6.5625 182.496094 0.617188 270.734375 C 6.0625 337.824219 44.226563 401.976563 113.933594 431.167969 C 121.609375 434.394531 129.675781 437.191406 138.121094 439.515625 C 153.835938 443.835938 170.863281 446.550781 189.210938 447.367188 C 241.910156 449.714844 284.703125 437.011719 326.558594 405.023438 C 336.289063 397.585938 345.964844 389.199219 358.59375 388.28125 C 367.769531 387.613281 376.472656 390.910156 366.878906 399.777344 C 355.601563 410.203125 368.613281 430.707031 397.234375 416.460938 C 445.035156 392.671875 464.699219 341.339844 473.964844 289.144531 C 485.335938 225.074219 479.824219 145.398438 445.074219 87.542969 "/>
</g>
</g>
<clipPath id="clip4">
  <path d="M 140.542969 110.054688 L 332.28125 110.054688 L 332.28125 262.820313 L 140.542969 262.820313 Z M 140.542969 110.054688 "/>
</clipPath>
<mask id="mask1">
  <g filter="url(#alpha)">
<rect x="0" y="0" width="479.31" height="447.64" style="fill:rgb(0%,0%,0%);fill-opacity:0.300003;stroke:none;"/>
  </g>
</mask>
<clipPath id="clip6">
  <path d="M 171 103 L 192.28125 103 L 192.28125 148 L 171 148 Z M 171 103 "/>
</clipPath>
<clipPath id="clip7">
  <path d="M 45 0.0546875 L 150 0.0546875 L 150 152.820313 L 45 152.820313 Z M 45 0.0546875 "/>
</clipPath>
<clipPath id="clip8">
  <path d="M 0.542969 67 L 8 67 L 8 98 L 0.542969 98 Z M 0.542969 67 "/>
</clipPath>
<clipPath id="clip5">
  <rect width="193" height="153"/>
</clipPath>
<g id="surface6" clip-path="url(#clip5)">
<g clip-path="url(#clip6)" clip-rule="nonzero">
<path style=" stroke:none;fill-rule:nonzero;fill:rgb(0%,0%,0%);fill-opacity:1;" d="M 174.105469 145.714844 C 174.148438 145.753906 174.191406 145.796875 174.238281 145.832031 C 174.414063 145.972656 174.601563 146.105469 174.800781 146.226563 C 174.851563 146.257813 174.90625 146.28125 174.957031 146.3125 C 175.128906 146.40625 175.3125 146.496094 175.507813 146.578125 C 175.570313 146.605469 175.636719 146.632813 175.707031 146.660156 C 175.957031 146.757813 176.222656 146.84375 176.515625 146.914063 C 176.558594 146.925781 176.609375 146.9375 176.65625 146.945313 C 176.917969 147.007813 177.195313 147.054688 177.484375 147.097656 C 177.578125 147.109375 177.671875 147.125 177.769531 147.136719 C 178.121094 147.175781 178.488281 147.210938 178.890625 147.226563 L 178.894531 147.226563 C 180.257813 147.277344 181.664063 147.011719 183.023438 146.472656 C 183.703125 146.203125 184.375 145.859375 185.023438 145.457031 C 185.460938 145.1875 185.882813 144.890625 186.292969 144.566406 C 186.5 144.402344 186.703125 144.234375 186.902344 144.058594 C 187.300781 143.703125 187.683594 143.324219 188.054688 142.921875 C 191.367188 139.289063 193.320313 133.617188 191.703125 126.941406 C 191.300781 125.277344 190.867188 123.710938 190.414063 122.21875 C 189.652344 119.703125 188.820313 117.410156 187.914063 115.367188 C 187.671875 114.824219 187.425781 114.296875 187.171875 113.785156 C 186.570313 112.566406 185.9375 111.453125 185.277344 110.425781 C 184.835938 109.734375 184.382813 109.074219 183.914063 108.472656 C 182.746094 106.96875 181.5 105.738281 180.167969 104.777344 C 179.835938 104.539063 179.5 104.316406 179.15625 104.109375 C 179.074219 104.0625 178.980469 104.019531 178.890625 103.972656 L 171.472656 121.308594 L 171.472656 140.554688 C 172.183594 142.527344 172.660156 144.3125 173.917969 145.535156 C 173.910156 145.53125 173.902344 145.53125 173.894531 145.53125 C 173.960938 145.59375 174.035156 145.652344 174.105469 145.714844 "/>
</g>
<g clip-path="url(#clip7)" clip-rule="nonzero">
<path style=" stroke:none;fill-rule:nonzero;fill:rgb(0%,0%,0%);fill-opacity:1;" d="M 127.136719 47.382813 C 127.203125 46.875 127.265625 46.375 127.328125 45.890625 L 127.355469 45.894531 C 127.277344 46.417969 127.203125 46.917969 127.136719 47.382813 M 126.824219 49.878906 C 126.816406 49.867188 126.808594 49.859375 126.796875 49.847656 C 126.816406 49.707031 126.839844 49.566406 126.859375 49.421875 C 126.839844 49.605469 126.828125 49.769531 126.824219 49.878906 M 149.777344 140.546875 L 149.777344 106.257813 C 148.796875 106.292969 147.898438 106.335938 147.109375 106.382813 C 147.144531 105.308594 147.296875 98.0625 145.300781 90.289063 C 145.203125 83.40625 142.382813 77.15625 137.851563 72.882813 C 137.378906 66.230469 133.671875 58.480469 129.519531 53.035156 C 129.625 53.042969 129.726563 53.0625 129.832031 53.050781 C 131.496094 52.871094 132.53125 50.796875 133.261719 47.214844 C 133.359375 46.726563 133.4375 46.265625 133.496094 45.820313 C 134.808594 44.941406 136.433594 43.632813 137.195313 42.164063 C 137.605469 41.382813 138 40.082031 138.175781 38.585938 C 139.5 37.800781 141.296875 36.511719 143.089844 34.523438 C 144.371094 33.101563 145.246094 31.125 145.632813 28.964844 C 145.199219 27.714844 144.734375 26.480469 144.230469 25.28125 C 142.015625 20.011719 139.074219 15.449219 135.4375 11.566406 C 134.398438 11.019531 133.269531 10.554688 132.046875 10.226563 C 130.933594 9.925781 129.835938 9.789063 128.757813 9.761719 C 125.675781 9.128906 119.210938 8.035156 110.351563 7.816406 C 107.363281 7.746094 104.675781 7.761719 102.269531 7.910156 C 100.222656 7.03125 97.984375 6.640625 95.679688 6.890625 C 94.269531 7.042969 92.941406 7.429688 91.699219 7.996094 C 87.890625 6.996094 84.046875 6.734375 80.890625 7.078125 C 80.128906 7.160156 79.378906 7.257813 78.648438 7.363281 C 78.621094 6.988281 78.597656 6.609375 78.554688 6.230469 C 78.476563 5.496094 78.359375 4.777344 78.226563 4.066406 C 78.316406 2.746094 78.324219 1.40625 78.246094 0.0546875 C 74.601563 1.226563 71.28125 2.769531 68.296875 4.695313 C 60.652344 9.625 54.980469 16.492188 51.285156 25.28125 C 47.589844 34.074219 45.738281 44.308594 45.738281 55.976563 L 45.738281 64.757813 C 49.316406 69.390625 53.640625 74.574219 56.488281 76.566406 C 56.699219 76.785156 56.910156 77 57.113281 77.203125 C 57.3125 80.652344 57.914063 88.425781 59.414063 90.984375 C 59.414063 90.984375 58.246094 95.109375 60.238281 97.195313 C 59.628906 101.816406 58.820313 113.390625 63.617188 124.785156 C 67.347656 133.640625 73.714844 138.417969 80.253906 139.9375 L 80.253906 56.46875 C 80.253906 51.867188 80.621094 47.308594 81.363281 42.785156 C 82.101563 38.269531 83.703125 34.445313 86.171875 31.320313 C 88.636719 28.199219 92.496094 26.636719 97.757813 26.636719 C 103.015625 26.636719 106.878906 28.199219 109.34375 31.320313 C 111.808594 34.445313 113.414063 38.269531 114.152344 42.785156 C 114.890625 47.308594 115.261719 51.867188 115.261719 56.46875 L 115.261719 143.988281 C 115.261719 145.464844 115.195313 146.949219 115.097656 148.441406 C 115.148438 148.726563 115.210938 149 115.277344 149.242188 C 115.277344 149.246094 115.28125 149.253906 115.28125 149.257813 C 115.367188 149.558594 115.46875 149.828125 115.578125 150.070313 C 115.597656 150.121094 115.621094 150.164063 115.644531 150.214844 C 115.742188 150.402344 115.839844 150.578125 115.949219 150.734375 C 115.980469 150.777344 116.007813 150.820313 116.035156 150.859375 C 116.175781 151.039063 116.320313 151.207031 116.480469 151.347656 C 116.488281 151.351563 116.492188 151.355469 116.496094 151.359375 C 116.65625 151.496094 116.824219 151.609375 117 151.714844 C 117.046875 151.742188 117.089844 151.769531 117.136719 151.792969 C 117.296875 151.882813 117.464844 151.960938 117.644531 152.03125 C 117.675781 152.046875 117.703125 152.058594 117.734375 152.070313 C 117.949219 152.152344 118.171875 152.226563 118.410156 152.296875 C 118.460938 152.308594 118.515625 152.324219 118.566406 152.335938 C 118.761719 152.390625 118.96875 152.445313 119.179688 152.496094 C 119.253906 152.511719 119.335938 152.53125 119.410156 152.550781 C 119.652344 152.605469 119.898438 152.664063 120.160156 152.722656 C 123.78125 153.566406 129.960938 148.65625 131.542969 143.71875 C 131.847656 142.761719 132.089844 141.632813 132.28125 140.4375 C 132.480469 140.40625 132.679688 140.378906 132.878906 140.34375 C 136.023438 140.980469 142.644531 141.917969 149.777344 140.546875 "/>
</g>
<g clip-path="url(#clip8)" clip-rule="nonzero">
<path style=" stroke:none;fill-rule:nonzero;fill:rgb(0%,0%,0%);fill-opacity:1;" d="M 7.277344 67.847656 C 5.988281 71.070313 4.847656 73.984375 4.269531 75.609375 C 2.429688 80.773438 0.496094 86.585938 0.542969 89.945313 C 0.589844 93.300781 2.652344 97.5625 4.269531 97.707031 C 5.878906 97.847656 7.035156 96.769531 7.277344 94.523438 "/>
</g>
</g>
</defs>
<g id="surface1">
<g clip-path="url(#clip1)" clip-rule="nonzero">
<path style=" stroke:none;fill-rule:nonzero;fill:rgb(34.899902%,88.999939%,65.499878%);fill-opacity:1;" d="M 445.074219 87.542969 C 443.398438 84.75 441.652344 82.007813 439.828125 79.328125 C 415.550781 43.65625 375.136719 19.234375 335.855469 8.175781 C 318.648438 3.320313 300.984375 0.78125 283.347656 0.132813 C 167.667969 -4.070313 125.171875 91.308594 87.902344 115.902344 C 50.632813 140.492188 -6.5625 182.496094 0.617188 270.734375 C 6.0625 337.824219 44.226563 401.976563 113.933594 431.167969 C 121.609375 434.394531 129.675781 437.191406 138.121094 439.515625 C 153.835938 443.835938 170.863281 446.550781 189.210938 447.367188 C 241.910156 449.714844 284.703125 437.011719 326.558594 405.023438 C 336.289063 397.585938 345.964844 389.199219 358.59375 388.28125 C 367.769531 387.613281 376.472656 390.910156 366.878906 399.777344 C 355.601563 410.203125 368.613281 430.707031 397.234375 416.460938 C 445.035156 392.671875 464.699219 341.339844 473.964844 289.144531 C 485.335938 225.074219 479.824219 145.398438 445.074219 87.542969 "/>
<use xlink:href="#surface7" transform="matrix(1,0,0,1,0,0.000000000000036221)" mask="url(#mask0)"/>
</g>
<path style=" stroke:none;fill-rule:nonzero;fill:rgb(9.799194%,17.999268%,20.799255%);fill-opacity:1;" d="M 199.601563 431.125 C 195.902344 431.125 192.070313 431.039063 188.21875 430.867188 C 171.554688 430.125 155.570313 427.679688 140.703125 423.589844 C 133.128906 421.503906 125.714844 418.945313 118.664063 415.984375 C 60.011719 391.421875 21.789063 337.089844 16.394531 270.628906 C 13.609375 236.390625 21.1875 207.582031 39.554688 182.554688 C 55.070313 161.417969 75.75 146.273438 95.78125 133.054688 C 108.851563 124.433594 120.515625 111.378906 134.019531 96.265625 C 165.769531 60.734375 205.289063 16.515625 277.539063 16.515625 C 279.753906 16.515625 282.015625 16.554688 284.265625 16.636719 C 301.285156 17.261719 317.648438 19.761719 332.890625 24.058594 C 372.039063 35.082031 407.148438 58.921875 426.824219 87.828125 C 428.390625 90.132813 429.964844 92.597656 431.496094 95.148438 C 466.167969 152.875 468.074219 232.296875 458.300781 287.375 C 448.617188 341.949219 430.707031 376.726563 402.34375 395.574219 C 401.933594 393.089844 401.28125 391.042969 400.707031 389.574219 C 395.699219 376.78125 382.734375 369.148438 366.027344 369.148438 C 364.628906 369.148438 363.199219 369.199219 361.777344 369.300781 C 341.988281 370.742188 327.621094 381.855469 317.128906 389.972656 C 316.230469 390.667969 315.339844 391.359375 314.441406 392.046875 C 279.074219 419.074219 243.65625 431.125 199.601563 431.125 "/>
<path style=" stroke:none;fill-rule:nonzero;fill:rgb(70.199585%,70.599365%,70.199585%);fill-opacity:1;" d="M 360.632813 71.457031 C 360.632813 74.050781 358.535156 76.152344 355.941406 76.152344 C 353.351563 76.152344 351.246094 74.050781 351.246094 71.457031 C 351.246094 68.867188 353.351563 66.765625 355.941406 66.765625 C 358.535156 66.765625 360.632813 68.867188 360.632813 71.457031 "/>
<path style=" stroke:none;fill-rule:nonzero;fill:rgb(70.199585%,70.599365%,70.199585%);fill-opacity:1;" d="M 439.175781 150.824219 C 439.175781 153.417969 437.074219 155.519531 434.484375 155.519531 C 431.890625 155.519531 429.789063 153.417969 429.789063 150.824219 C 429.789063 148.234375 431.890625 146.132813 434.484375 146.132813 C 437.074219 146.132813 439.175781 148.234375 439.175781 150.824219 "/>
<path style=" stroke:none;fill-rule:nonzero;fill:rgb(70.199585%,70.599365%,70.199585%);fill-opacity:1;" d="M 114.890625 373.183594 C 114.890625 375.777344 112.789063 377.878906 110.195313 377.878906 C 107.605469 377.878906 105.503906 375.777344 105.503906 373.183594 C 105.503906 370.59375 107.605469 368.492188 110.195313 368.492188 C 112.789063 368.492188 114.890625 370.59375 114.890625 373.183594 "/>
<path style=" stroke:none;fill-rule:nonzero;fill:rgb(70.199585%,70.599365%,70.199585%);fill-opacity:1;" d="M 400.578125 369.109375 C 400.578125 371.703125 398.476563 373.804688 395.886719 373.804688 C 393.292969 373.804688 391.191406 371.703125 391.191406 369.109375 C 391.191406 366.519531 393.292969 364.417969 395.886719 364.417969 C 398.476563 364.417969 400.578125 366.519531 400.578125 369.109375 "/>
<path style=" stroke:none;fill-rule:nonzero;fill:rgb(70.199585%,70.599365%,70.199585%);fill-opacity:1;" d="M 241.898438 30.601563 C 241.898438 32.082031 240.699219 33.28125 239.21875 33.28125 C 237.738281 33.28125 236.539063 32.082031 236.539063 30.601563 C 236.539063 29.125 237.738281 27.925781 239.21875 27.925781 C 240.699219 27.925781 241.898438 29.125 241.898438 30.601563 "/>
<path style=" stroke:none;fill-rule:nonzero;fill:rgb(70.199585%,70.599365%,70.199585%);fill-opacity:1;" d="M 60.105469 192.414063 C 60.105469 195.003906 58.003906 197.105469 55.414063 197.105469 C 52.820313 197.105469 50.71875 195.003906 50.71875 192.414063 C 50.71875 189.820313 52.820313 187.71875 55.414063 187.71875 C 58.003906 187.71875 60.105469 189.820313 60.105469 192.414063 "/>
<path style=" stroke:none;fill-rule:nonzero;fill:rgb(70.199585%,70.599365%,70.199585%);fill-opacity:1;" d="M 395.976563 74.953125 C 395.976563 76.238281 394.933594 77.28125 393.648438 77.28125 C 392.363281 77.28125 391.320313 76.238281 391.320313 74.953125 C 391.320313 73.667969 392.363281 72.625 393.648438 72.625 C 394.933594 72.625 395.976563 73.667969 395.976563 74.953125 "/>
<path style=" stroke:none;fill-rule:nonzero;fill:rgb(34.899902%,88.999939%,65.499878%);fill-opacity:1;" d="M 82.683594 341.847656 C 82.683594 343.132813 81.640625 344.175781 80.355469 344.175781 C 79.070313 344.175781 78.027344 343.132813 78.027344 341.847656 C 78.027344 340.5625 79.070313 339.519531 80.355469 339.519531 C 81.640625 339.519531 82.683594 340.5625 82.683594 341.847656 "/>
<path style=" stroke:none;fill-rule:nonzero;fill:rgb(34.899902%,88.999939%,65.499878%);fill-opacity:1;" d="M 426.34375 322.660156 C 426.34375 323.945313 425.300781 324.988281 424.015625 324.988281 C 422.730469 324.988281 421.6875 323.945313 421.6875 322.660156 C 421.6875 321.375 422.730469 320.335938 424.015625 320.335938 C 425.300781 320.335938 426.34375 321.375 426.34375 322.660156 "/>
<path style=" stroke:none;fill-rule:nonzero;fill:rgb(34.899902%,88.999939%,65.499878%);fill-opacity:1;" d="M 209.65625 386.910156 C 209.65625 388.195313 208.617188 389.238281 207.328125 389.238281 C 206.042969 389.238281 205 388.195313 205 386.910156 C 205 385.625 206.042969 384.582031 207.328125 384.582031 C 208.617188 384.582031 209.65625 385.625 209.65625 386.910156 "/>
<path style=" stroke:none;fill-rule:nonzero;fill:rgb(70.199585%,70.599365%,70.199585%);fill-opacity:1;" d="M 90.355469 304.753906 C 90.355469 306.039063 89.316406 307.082031 88.027344 307.082031 C 86.742188 307.082031 85.699219 306.039063 85.699219 304.753906 C 85.699219 303.46875 86.742188 302.425781 88.027344 302.425781 C 89.316406 302.425781 90.355469 303.46875 90.355469 304.753906 "/>
<path style=" stroke:none;fill-rule:nonzero;fill:rgb(70.199585%,70.599365%,70.199585%);fill-opacity:1;" d="M 186.773438 416.359375 C 186.773438 417.648438 185.730469 418.6875 184.445313 418.6875 C 183.15625 418.6875 182.117188 417.648438 182.117188 416.359375 C 182.117188 415.074219 183.15625 414.03125 184.445313 414.03125 C 185.730469 414.03125 186.773438 415.074219 186.773438 416.359375 "/>
<path style=" stroke:none;fill-rule:nonzero;fill:rgb(34.899902%,88.999939%,65.499878%);fill-opacity:1;" d="M 320.820313 41.265625 C 320.820313 42.550781 319.777344 43.59375 318.492188 43.59375 C 317.207031 43.59375 316.164063 42.550781 316.164063 41.265625 C 316.164063 39.980469 317.207031 38.9375 318.492188 38.9375 C 319.777344 38.9375 320.820313 39.980469 320.820313 41.265625 "/>
<path style=" stroke:none;fill-rule:nonzero;fill:rgb(70.199585%,70.599365%,70.199585%);fill-opacity:1;" d="M 324.839844 295.800781 C 324.839844 297.085938 323.796875 298.128906 322.511719 298.128906 C 321.222656 298.128906 320.183594 297.085938 320.183594 295.800781 C 320.183594 294.515625 321.222656 293.472656 322.511719 293.472656 C 323.796875 293.472656 324.839844 294.515625 324.839844 295.800781 "/>
<path style=" stroke:none;fill-rule:nonzero;fill:rgb(70.199585%,70.599365%,70.199585%);fill-opacity:1;" d="M 431.726563 205.3125 C 431.726563 206.597656 430.683594 207.640625 429.398438 207.640625 C 428.113281 207.640625 427.070313 206.597656 427.070313 205.3125 C 427.070313 204.023438 428.113281 202.984375 429.398438 202.984375 C 430.683594 202.984375 431.726563 204.023438 431.726563 205.3125 "/>
<path style=" stroke:none;fill-rule:nonzero;fill:rgb(34.899902%,88.999939%,65.499878%);fill-opacity:1;" d="M 53.066406 294.523438 C 53.066406 295.808594 52.027344 296.851563 50.738281 296.851563 C 49.453125 296.851563 48.410156 295.808594 48.410156 294.523438 C 48.410156 293.238281 49.453125 292.195313 50.738281 292.195313 C 52.027344 292.195313 53.066406 293.238281 53.066406 294.523438 "/>
<path style=" stroke:none;fill-rule:nonzero;fill:rgb(70.199585%,70.599365%,70.199585%);fill-opacity:1;" d="M 260.472656 400.046875 C 260.472656 401.332031 259.433594 402.375 258.144531 402.375 C 256.859375 402.375 255.816406 401.332031 255.816406 400.046875 C 255.816406 398.757813 256.859375 397.71875 258.144531 397.71875 C 259.433594 397.71875 260.472656 398.757813 260.472656 400.046875 "/>
<path style=" stroke:none;fill-rule:nonzero;fill:rgb(34.899902%,88.999939%,65.499878%);fill-opacity:1;" d="M 176.054688 309.230469 C 176.054688 310.515625 175.011719 311.558594 173.726563 311.558594 C 172.441406 311.558594 171.398438 310.515625 171.398438 309.230469 C 171.398438 307.945313 172.441406 306.902344 173.726563 306.902344 C 175.011719 306.902344 176.054688 307.945313 176.054688 309.230469 "/>
<path style=" stroke:none;fill-rule:nonzero;fill:rgb(34.899902%,88.999939%,65.499878%);fill-opacity:1;" d="M 328.902344 121.207031 C 328.902344 122.492188 327.863281 123.535156 326.574219 123.535156 C 325.289063 123.535156 324.246094 122.492188 324.246094 121.207031 C 324.246094 119.921875 325.289063 118.878906 326.574219 118.878906 C 327.863281 118.878906 328.902344 119.921875 328.902344 121.207031 "/>
<path style=" stroke:none;fill-rule:nonzero;fill:rgb(34.899902%,88.999939%,65.499878%);fill-opacity:1;" d="M 340.070313 233.28125 L 371.136719 233.28125 L 371.136719 146.5 Z M 371.136719 309.460938 L 371.136719 260.398438 L 311.472656 260.398438 L 311.472656 231.308594 L 363.492188 109.765625 L 403.183594 109.765625 L 403.183594 233.28125 L 423.644531 233.28125 L 423.644531 260.398438 L 403.183594 260.398438 L 403.183594 309.460938 Z M 237.757813 283.082031 C 242.851563 283.082031 246.632813 281.523438 249.097656 278.398438 C 251.5625 275.277344 253.203125 271.492188 254.027344 267.054688 C 254.847656 262.617188 255.261719 258.265625 255.261719 253.988281 L 255.261719 166.46875 C 255.261719 161.867188 254.890625 157.308594 254.152344 152.785156 C 253.410156 148.269531 251.808594 144.445313 249.34375 141.320313 C 246.878906 138.199219 243.015625 136.636719 237.757813 136.636719 C 232.496094 136.636719 228.636719 138.199219 226.171875 141.320313 C 223.703125 144.445313 222.101563 148.269531 221.363281 152.785156 C 220.621094 157.308594 220.253906 161.867188 220.253906 166.46875 L 220.253906 253.988281 C 220.253906 258.265625 220.703125 262.617188 221.609375 267.054688 C 222.511719 271.492188 224.199219 275.277344 226.664063 278.398438 C 229.128906 281.523438 232.824219 283.082031 237.757813 283.082031 M 237.757813 312.421875 C 226.085938 312.421875 216.429688 309.953125 208.789063 305.023438 C 201.148438 300.09375 195.390625 293.273438 191.53125 284.5625 C 187.667969 275.851563 185.738281 265.824219 185.738281 254.484375 L 185.738281 165.976563 C 185.738281 154.308594 187.585938 144.074219 191.285156 135.28125 C 194.984375 126.492188 200.652344 119.625 208.296875 114.695313 C 215.9375 109.765625 225.757813 107.300781 237.757813 107.300781 C 249.753906 107.300781 259.578125 109.765625 267.21875 114.695313 C 274.859375 119.625 280.53125 126.492188 284.230469 135.28125 C 287.929688 144.074219 289.777344 154.308594 289.777344 165.976563 L 289.777344 254.484375 C 289.777344 265.824219 287.84375 275.851563 283.984375 284.5625 C 280.121094 293.273438 274.367188 300.09375 266.726563 305.023438 C 259.085938 309.953125 249.425781 312.421875 237.757813 312.421875 M 84.164063 233.28125 L 115.230469 233.28125 L 115.230469 146.5 Z M 115.230469 309.460938 L 115.230469 260.398438 L 55.566406 260.398438 L 55.566406 231.308594 L 107.585938 109.765625 L 147.277344 109.765625 L 147.277344 233.28125 L 167.742188 233.28125 L 167.742188 260.398438 L 147.277344 260.398438 L 147.277344 309.460938 "/>
<path style="fill:none;stroke-width:10;stroke-linecap:butt;stroke-linejoin:miter;stroke:rgb(9.799194%,17.999268%,20.799255%);stroke-opacity:1;stroke-miterlimit:10;" d="M 3400.703125 2143.5875 L 3711.367188 2143.5875 L 3711.367188 3011.4 Z M 3711.367188 1381.790625 L 3711.367188 1872.415625 L 3114.726563 1872.415625 L 3114.726563 2163.314063 L 3634.921875 3378.74375 L 4031.835938 3378.74375 L 4031.835938 2143.5875 L 4236.445313 2143.5875 L 4236.445313 1872.415625 L 4031.835938 1872.415625 L 4031.835938 1381.790625 Z M 2377.578125 1645.579688 C 2428.515625 1645.579688 2466.328125 1661.165625 2490.976563 1692.415625 C 2515.625 1723.626563 2532.03125 1761.478125 2540.273438 1805.853125 C 2548.476563 1850.228125 2552.617188 1893.74375 2552.617188 1936.517188 L 2552.617188 2811.7125 C 2552.617188 2857.728125 2548.90625 2903.314063 2541.523438 2948.548438 C 2534.101563 2993.704688 2518.085938 3031.946875 2493.4375 3063.196875 C 2468.789063 3094.407813 2430.15625 3110.032813 2377.578125 3110.032813 C 2324.960938 3110.032813 2286.367188 3094.407813 2261.71875 3063.196875 C 2237.03125 3031.946875 2221.015625 2993.704688 2213.632813 2948.548438 C 2206.210938 2903.314063 2202.539063 2857.728125 2202.539063 2811.7125 L 2202.539063 1936.517188 C 2202.539063 1893.74375 2207.03125 1850.228125 2216.09375 1805.853125 C 2225.117188 1761.478125 2241.992188 1723.626563 2266.640625 1692.415625 C 2291.289063 1661.165625 2328.242188 1645.579688 2377.578125 1645.579688 Z M 2377.578125 1352.18125 C 2260.859375 1352.18125 2164.296875 1376.86875 2087.890625 1426.165625 C 2011.484375 1475.4625 1953.90625 1543.665625 1915.3125 1630.775 C 1876.679688 1717.884375 1857.382813 1818.157813 1857.382813 1931.55625 L 1857.382813 2816.634375 C 1857.382813 2933.314063 1875.859375 3035.657813 1912.851563 3123.5875 C 1949.84375 3211.478125 2006.523438 3280.15 2082.96875 3329.446875 C 2159.375 3378.74375 2257.578125 3403.392188 2377.578125 3403.392188 C 2497.539063 3403.392188 2595.78125 3378.74375 2672.1875 3329.446875 C 2748.59375 3280.15 2805.3125 3211.478125 2842.304688 3123.5875 C 2879.296875 3035.657813 2897.773438 2933.314063 2897.773438 2816.634375 L 2897.773438 1931.55625 C 2897.773438 1818.157813 2878.4375 1717.884375 2839.84375 1630.775 C 2801.210938 1543.665625 2743.671875 1475.4625 2667.265625 1426.165625 C 2590.859375 1376.86875 2494.257813 1352.18125 2377.578125 1352.18125 Z M 841.640625 2143.5875 L 1152.304688 2143.5875 L 1152.304688 3011.4 Z M 1152.304688 1381.790625 L 1152.304688 1872.415625 L 555.664063 1872.415625 L 555.664063 2163.314063 L 1075.859375 3378.74375 L 1472.773438 3378.74375 L 1472.773438 2143.5875 L 1677.421875 2143.5875 L 1677.421875 1872.415625 L 1472.773438 1872.415625 L 1472.773438 1381.790625 Z M 1152.304688 1381.790625 " transform="matrix(0.1,0,0,-0.1,0,447.64)"/>
<path style=" stroke:none;fill-rule:nonzero;fill:rgb(70.199585%,70.599365%,70.199585%);fill-opacity:1;" d="M 131.070313 364.28125 L 131.070313 324.277344 L 145.542969 324.277344 L 145.542969 327.191406 L 134.871094 327.191406 L 134.871094 342.203125 L 143.566406 342.203125 L 143.566406 344.972656 L 134.871094 344.972656 L 134.871094 361.46875 L 145.640625 361.46875 L 145.640625 364.28125 "/>
<path style=" stroke:none;fill-rule:nonzero;fill:rgb(70.199585%,70.599365%,70.199585%);fill-opacity:1;" d="M 154.53125 341.859375 L 159.617188 341.859375 C 161.296875 341.859375 162.597656 341.582031 163.519531 341.019531 C 164.441406 340.460938 165.101563 339.636719 165.496094 338.550781 C 165.890625 337.464844 166.085938 336.097656 166.085938 334.449219 C 166.085938 331.980469 165.660156 330.136719 164.804688 328.921875 C 163.945313 327.699219 162.25 327.089844 159.714844 327.089844 L 154.53125 327.089844 Z M 150.777344 364.28125 L 150.777344 324.277344 L 159.816406 324.277344 C 162.316406 324.277344 164.285156 324.679688 165.71875 325.484375 C 167.148438 326.292969 168.179688 327.460938 168.804688 328.992188 C 169.429688 330.523438 169.742188 332.34375 169.742188 334.449219 C 169.742188 335.933594 169.578125 337.332031 169.25 338.648438 C 168.917969 339.964844 168.359375 341.085938 167.570313 342.007813 C 166.777344 342.929688 165.660156 343.539063 164.210938 343.835938 L 170.335938 364.28125 L 166.679688 364.28125 L 160.800781 344.625 L 154.53125 344.625 L 154.53125 364.28125 "/>
<path style=" stroke:none;fill-rule:nonzero;fill:rgb(70.199585%,70.599365%,70.199585%);fill-opacity:1;" d="M 179.816406 341.859375 L 184.90625 341.859375 C 186.585938 341.859375 187.886719 341.582031 188.808594 341.019531 C 189.730469 340.460938 190.386719 339.636719 190.78125 338.550781 C 191.179688 337.464844 191.375 336.097656 191.375 334.449219 C 191.375 331.980469 190.945313 330.136719 190.089844 328.921875 C 189.234375 327.699219 187.539063 327.089844 185.003906 327.089844 L 179.816406 327.089844 Z M 176.0625 364.28125 L 176.0625 324.277344 L 185.101563 324.277344 C 187.605469 324.277344 189.574219 324.679688 191.003906 325.484375 C 192.4375 326.292969 193.464844 327.460938 194.09375 328.992188 C 194.71875 330.523438 195.03125 332.34375 195.03125 334.449219 C 195.03125 335.933594 194.863281 337.332031 194.535156 338.648438 C 194.207031 339.964844 193.648438 341.085938 192.855469 342.007813 C 192.066406 342.929688 190.945313 343.539063 189.5 343.835938 L 195.621094 364.28125 L 191.96875 364.28125 L 186.089844 344.625 L 179.816406 344.625 L 179.816406 364.28125 "/>
<path style=" stroke:none;fill-rule:nonzero;fill:rgb(70.199585%,70.599365%,70.199585%);fill-opacity:1;" d="M 210.785156 361.765625 C 212.5625 361.765625 213.914063 361.410156 214.835938 360.703125 C 215.757813 359.992188 216.390625 359.007813 216.738281 357.738281 C 217.082031 356.472656 217.253906 354.996094 217.253906 353.320313 L 217.253906 335.191406 C 217.253906 333.511719 217.082031 332.046875 216.738281 330.796875 C 216.390625 329.542969 215.757813 328.582031 214.835938 327.90625 C 213.914063 327.234375 212.5625 326.894531 210.785156 326.894531 C 209.039063 326.894531 207.699219 327.234375 206.761719 327.90625 C 205.820313 328.582031 205.179688 329.542969 204.835938 330.796875 C 204.488281 332.046875 204.316406 333.511719 204.316406 335.191406 L 204.316406 353.320313 C 204.316406 354.996094 204.488281 356.472656 204.835938 357.738281 C 205.179688 359.007813 205.820313 359.992188 206.761719 360.703125 C 207.699219 361.410156 209.039063 361.765625 210.785156 361.765625 M 210.785156 364.777344 C 208.148438 364.777344 206.085938 364.257813 204.589844 363.222656 C 203.089844 362.183594 202.035156 360.734375 201.425781 358.875 C 200.816406 357.015625 200.511719 354.882813 200.511719 352.476563 L 200.511719 335.882813 C 200.511719 333.445313 200.835938 331.332031 201.476563 329.535156 C 202.117188 327.742188 203.1875 326.351563 204.6875 325.363281 C 206.183594 324.375 208.21875 323.882813 210.785156 323.882813 C 213.386719 323.882813 215.4375 324.375 216.933594 325.363281 C 218.433594 326.351563 219.496094 327.742188 220.121094 329.535156 C 220.746094 331.332031 221.058594 333.445313 221.058594 335.882813 L 221.058594 352.527344 C 221.058594 354.933594 220.753906 357.054688 220.144531 358.898438 C 219.535156 360.742188 218.488281 362.183594 217.007813 363.222656 C 215.527344 364.257813 213.453125 364.777344 210.785156 364.777344 "/>
<path style=" stroke:none;fill-rule:nonzero;fill:rgb(70.199585%,70.599365%,70.199585%);fill-opacity:1;" d="M 231.035156 341.859375 L 236.121094 341.859375 C 237.804688 341.859375 239.101563 341.582031 240.023438 341.019531 C 240.945313 340.460938 241.605469 339.636719 242 338.550781 C 242.394531 337.464844 242.59375 336.097656 242.59375 334.449219 C 242.59375 331.980469 242.164063 330.136719 241.308594 328.921875 C 240.453125 327.699219 238.757813 327.089844 236.222656 327.089844 L 231.035156 327.089844 Z M 227.28125 364.28125 L 227.28125 324.277344 L 236.320313 324.277344 C 238.820313 324.277344 240.789063 324.679688 242.222656 325.484375 C 243.65625 326.292969 244.683594 327.460938 245.308594 328.992188 C 245.933594 330.523438 246.246094 332.34375 246.246094 334.449219 C 246.246094 335.933594 246.082031 337.332031 245.753906 338.648438 C 245.425781 339.964844 244.867188 341.085938 244.074219 342.007813 C 243.285156 342.929688 242.164063 343.539063 240.714844 343.835938 L 246.84375 364.28125 L 243.1875 364.28125 L 237.308594 344.625 L 231.035156 344.625 L 231.035156 364.28125 "/>
<path style=" stroke:none;fill-rule:nonzero;fill:rgb(70.199585%,70.599365%,70.199585%);fill-opacity:1;" d="M 266.398438 342.550781 L 271.191406 342.550781 C 272.804688 342.550781 274.113281 342.3125 275.117188 341.835938 C 276.121094 341.359375 276.855469 340.558594 277.316406 339.441406 C 277.777344 338.320313 278.007813 336.804688 278.007813 334.894531 C 278.007813 332.855469 277.808594 331.265625 277.414063 330.128906 C 277.019531 328.992188 276.335938 328.203125 275.363281 327.757813 C 274.390625 327.316406 273.019531 327.09375 271.238281 327.09375 L 266.398438 327.09375 Z M 262.644531 364.28125 L 262.644531 324.277344 L 272.226563 324.277344 C 274.632813 324.277344 276.515625 324.722656 277.882813 325.609375 C 279.25 326.5 280.230469 327.734375 280.820313 329.316406 C 281.414063 330.894531 281.710938 332.757813 281.710938 334.894531 C 281.710938 336.773438 281.40625 338.511719 280.796875 340.105469 C 280.1875 341.703125 279.183594 342.980469 277.785156 343.933594 C 276.382813 344.890625 274.550781 345.363281 272.277344 345.363281 L 266.398438 345.363281 L 266.398438 364.28125 "/>
<path style=" stroke:none;fill-rule:nonzero;fill:rgb(70.199585%,70.599365%,70.199585%);fill-opacity:1;" d="M 288.527344 350.847656 L 297.019531 350.847656 L 292.722656 329.265625 Z M 282.304688 364.285156 L 290.75 324.277344 L 294.699219 324.277344 L 303.195313 364.285156 L 299.492188 364.285156 L 297.515625 353.566406 L 287.984375 353.566406 L 285.957031 364.285156 "/>
<path style=" stroke:none;fill-rule:nonzero;fill:rgb(70.199585%,70.599365%,70.199585%);fill-opacity:1;" d="M 316.976563 364.824219 C 314.472656 364.824219 312.503906 364.300781 311.074219 363.246094 C 309.640625 362.191406 308.628906 360.703125 308.039063 358.777344 C 307.441406 356.847656 307.148438 354.621094 307.148438 352.082031 L 307.148438 336.476563 C 307.148438 333.90625 307.433594 331.683594 308.011719 329.808594 C 308.589844 327.929688 309.609375 326.472656 311.074219 325.4375 C 312.539063 324.398438 314.605469 323.882813 317.273438 323.882813 C 319.675781 323.882813 321.578125 324.324219 322.976563 325.214844 C 324.375 326.105469 325.390625 327.40625 326.015625 329.117188 C 326.640625 330.828125 326.953125 332.921875 326.953125 335.390625 L 326.953125 336.773438 L 323.398438 336.773438 L 323.398438 335.390625 C 323.398438 333.480469 323.222656 331.898438 322.878906 330.648438 C 322.53125 329.398438 321.933594 328.460938 321.074219 327.832031 C 320.21875 327.207031 318.953125 326.894531 317.273438 326.894531 C 315.460938 326.894531 314.09375 327.289063 313.171875 328.078125 C 312.25 328.871094 311.648438 329.957031 311.371094 331.339844 C 311.089844 332.722656 310.949219 334.304688 310.949219 336.082031 L 310.949219 352.527344 C 310.949219 354.472656 311.121094 356.132813 311.46875 357.515625 C 311.816406 358.898438 312.457031 359.953125 313.394531 360.679688 C 314.332031 361.402344 315.660156 361.765625 317.371094 361.765625 C 319.019531 361.765625 320.292969 361.394531 321.199219 360.652344 C 322.105469 359.910156 322.738281 358.851563 323.101563 357.46875 C 323.464844 356.085938 323.644531 354.40625 323.644531 352.429688 L 323.644531 347.738281 L 317.71875 347.738281 L 317.71875 344.921875 L 327.101563 344.921875 L 327.101563 364.28125 L 324.679688 364.28125 L 324.234375 359.738281 C 323.742188 361.289063 322.925781 362.523438 321.792969 363.441406 C 320.65625 364.363281 319.050781 364.824219 316.976563 364.824219 "/>
<path style=" stroke:none;fill-rule:nonzero;fill:rgb(70.199585%,70.599365%,70.199585%);fill-opacity:1;" d="M 333.570313 364.28125 L 333.570313 324.277344 L 348.042969 324.277344 L 348.042969 327.191406 L 337.375 327.191406 L 337.375 342.203125 L 346.066406 342.203125 L 346.066406 344.972656 L 337.375 344.972656 L 337.375 361.46875 L 348.140625 361.46875 L 348.140625 364.28125 "/>
<g clip-path="url(#clip4)" clip-rule="nonzero">
<use xlink:href="#surface6" transform="matrix(1,0,0,1,140,110)" mask="url(#mask1)"/>
</g>
<path style=" stroke:none;fill-rule:nonzero;fill:rgb(87.098694%,87.098694%,87.098694%);fill-opacity:1;" d="M 262.542969 187.769531 C 262.542969 187.769531 263.535156 195.253906 263.476563 202.855469 C 263.417969 210.453125 265.203125 210.613281 268.824219 211.457031 C 272.449219 212.296875 278.625 207.390625 280.207031 202.449219 C 281.789063 197.511719 281.640625 187.988281 281.640625 187.988281 "/>
<path style="fill:none;stroke-width:10;stroke-linecap:butt;stroke-linejoin:miter;stroke:rgb(9.799194%,17.999268%,20.799255%);stroke-opacity:1;stroke-miterlimit:10;" d="M 2625.429688 2598.704688 C 2625.429688 2598.704688 2635.351563 2523.860938 2634.765625 2447.845313 C 2634.179688 2371.86875 2652.03125 2370.267188 2688.242188 2361.829688 C 2724.492188 2353.43125 2786.25 2402.49375 2802.070313 2451.907813 C 2817.890625 2501.282813 2816.40625 2596.517188 2816.40625 2596.517188 Z M 2625.429688 2598.704688 " transform="matrix(0.1,0,0,-0.1,0,447.64)"/>
<path style=" stroke:none;fill-rule:nonzero;fill:rgb(87.098694%,87.098694%,87.098694%);fill-opacity:1;" d="M 279.078125 196.921875 C 278.914063 200.296875 277.914063 205.699219 272.902344 208.363281 C 268.660156 210.621094 264.96875 208.632813 263.941406 207.972656 C 264.683594 210.613281 266.3125 210.871094 268.824219 211.457031 C 272.449219 212.300781 278.625 207.390625 280.207031 202.449219 C 281.789063 197.511719 281.640625 187.992188 281.640625 187.992188 L 279.410156 187.964844 C 279.328125 190.464844 279.1875 194.652344 279.078125 196.921875 "/>
<path style="fill:none;stroke-width:10;stroke-linecap:butt;stroke-linejoin:miter;stroke:rgb(9.799194%,17.999268%,20.799255%);stroke-opacity:1;stroke-miterlimit:10;" d="M 2790.78125 2507.18125 C 2789.140625 2473.43125 2779.140625 2419.407813 2729.023438 2392.767188 C 2686.601563 2370.189063 2649.6875 2390.071875 2639.414063 2396.673438 C 2646.835938 2370.267188 2663.125 2367.689063 2688.242188 2361.829688 C 2724.492188 2353.392188 2786.25 2402.49375 2802.070313 2451.907813 C 2817.890625 2501.282813 2816.40625 2596.478125 2816.40625 2596.478125 L 2794.101563 2596.751563 C 2793.28125 2571.751563 2791.875 2529.876563 2790.78125 2507.18125 Z M 2790.78125 2507.18125 " transform="matrix(0.1,0,0,-0.1,0,447.64)"/>
<path style=" stroke:none;fill-rule:nonzero;fill:rgb(87.098694%,87.098694%,87.098694%);fill-opacity:1;" d="M 245.308594 194.9375 C 245.308594 194.9375 251.300781 194.816406 259.449219 191.8125 C 267.601563 188.808594 276.746094 181.988281 274.789063 175.3125 C 272.824219 168.640625 262.207031 166.792969 258.019531 167.246094 C 253.828125 167.703125 249.019531 168.929688 249.019531 168.929688 C 249.019531 168.929688 250 187.71875 245.308594 194.9375 "/>
<path style="fill:none;stroke-width:10;stroke-linecap:butt;stroke-linejoin:miter;stroke:rgb(9.799194%,17.999268%,20.799255%);stroke-opacity:1;stroke-miterlimit:10;" d="M 2453.085938 2527.025 C 2453.085938 2527.025 2513.007813 2528.235938 2594.492188 2558.275 C 2676.015625 2588.314063 2767.460938 2656.517188 2747.890625 2723.275 C 2728.242188 2789.99375 2622.070313 2808.470313 2580.195313 2803.939063 C 2538.28125 2799.36875 2490.195313 2787.103125 2490.195313 2787.103125 C 2490.195313 2787.103125 2500 2599.2125 2453.085938 2527.025 Z M 2453.085938 2527.025 " transform="matrix(0.1,0,0,-0.1,0,447.64)"/>
<path style=" stroke:none;fill-rule:nonzero;fill:rgb(34.899902%,88.999939%,65.499878%);fill-opacity:1;" d="M 241.367188 197.664063 C 241.367188 197.664063 246.722656 196.550781 249.96875 192.3125 C 253.21875 188.074219 254.417969 181.234375 252.683594 176.65625 C 250.949219 172.074219 241.367188 197.664063 241.367188 197.664063 "/>
<path style="fill:none;stroke-width:10;stroke-linecap:butt;stroke-linejoin:miter;stroke:rgb(9.799194%,17.999268%,20.799255%);stroke-opacity:1;stroke-miterlimit:10;" d="M 2413.671875 2499.759375 C 2413.671875 2499.759375 2467.226563 2510.892188 2499.6875 2553.275 C 2532.1875 2595.657813 2544.179688 2664.05625 2526.835938 2709.8375 C 2509.492188 2755.657813 2413.671875 2499.759375 2413.671875 2499.759375 Z M 2413.671875 2499.759375 " transform="matrix(0.1,0,0,-0.1,0,447.64)"/>
<path style=" stroke:none;fill-rule:nonzero;fill:rgb(87.098694%,87.098694%,87.098694%);fill-opacity:1;" d="M 209.234375 153.828125 C 209.234375 153.828125 206.097656 168.824219 212.28125 183.515625 C 218.472656 198.207031 231.917969 201.691406 241.367188 197.664063 C 250.820313 193.632813 253.082031 180.320313 253.179688 171.480469 C 253.28125 162.640625 253.019531 158.605469 253.019531 158.605469 C 253.019531 158.605469 221.214844 161.710938 209.234375 153.828125 "/>
<path style="fill:none;stroke-width:10;stroke-linecap:butt;stroke-linejoin:miter;stroke:rgb(9.799194%,17.999268%,20.799255%);stroke-opacity:1;stroke-miterlimit:10;" d="M 2092.34375 2938.11875 C 2092.34375 2938.11875 2060.976563 2788.157813 2122.8125 2641.24375 C 2184.726563 2494.329688 2319.179688 2459.485938 2413.671875 2499.759375 C 2508.203125 2540.071875 2530.820313 2673.196875 2531.796875 2761.595313 C 2532.8125 2849.99375 2530.195313 2890.345313 2530.195313 2890.345313 C 2530.195313 2890.345313 2212.148438 2859.290625 2092.34375 2938.11875 Z M 2092.34375 2938.11875 " transform="matrix(0.1,0,0,-0.1,0,447.64)"/>
<path style=" stroke:none;fill-rule:nonzero;fill:rgb(34.899902%,88.999939%,65.499878%);fill-opacity:1;" d="M 208.082031 149.714844 C 208.082031 149.714844 206.675781 154.636719 209.519531 156.445313 C 212.363281 158.257813 227.078125 166.898438 244.554688 163.589844 C 254.3125 161.738281 252.164063 158.878906 251.992188 157.304688 C 251.824219 155.734375 208.082031 149.714844 208.082031 149.714844 "/>
<path style="fill:none;stroke-width:10;stroke-linecap:butt;stroke-linejoin:miter;stroke:rgb(9.799194%,17.999268%,20.799255%);stroke-opacity:1;stroke-miterlimit:10;" d="M 2080.820313 2979.251563 C 2080.820313 2979.251563 2066.757813 2930.032813 2095.195313 2911.946875 C 2123.632813 2893.821875 2270.78125 2807.415625 2445.546875 2840.501563 C 2543.125 2859.017188 2521.640625 2887.610938 2519.921875 2903.353125 C 2518.242188 2919.05625 2080.820313 2979.251563 2080.820313 2979.251563 Z M 2080.820313 2979.251563 " transform="matrix(0.1,0,0,-0.1,0,447.64)"/>
<path style=" stroke:none;fill-rule:nonzero;fill:rgb(100%,100%,100%);fill-opacity:1;" d="M 205.695313 134.257813 C 205.695313 134.257813 206.132813 146.394531 208.082031 149.714844 C 210.03125 153.035156 235.851563 163.121094 248.964844 160.285156 C 262.074219 157.445313 283.410156 145.769531 286.007813 137.1875 C 288.609375 128.605469 281.851563 115.101563 275.492188 108.609375 C 269.132813 102.113281 266.34375 100.828125 266.34375 100.828125 C 266.34375 100.828125 250.761719 121.59375 231.378906 128.464844 C 211.996094 135.339844 205.695313 134.257813 205.695313 134.257813 "/>
<path style="fill:none;stroke-width:10;stroke-linecap:butt;stroke-linejoin:miter;stroke:rgb(9.799194%,17.999268%,20.799255%);stroke-opacity:1;stroke-miterlimit:10;" d="M 2056.953125 3133.821875 C 2056.953125 3133.821875 2061.328125 3012.454688 2080.820313 2979.251563 C 2100.3125 2946.048438 2358.515625 2845.189063 2489.648438 2873.548438 C 2620.742188 2901.946875 2834.101563 3018.704688 2860.078125 3104.525 C 2886.09375 3190.345313 2818.515625 3325.384375 2754.921875 3390.30625 C 2691.328125 3455.267188 2663.4375 3468.11875 2663.4375 3468.11875 C 2663.4375 3468.11875 2507.617188 3260.4625 2313.789063 3191.751563 C 2119.960938 3123.001563 2056.953125 3133.821875 2056.953125 3133.821875 Z M 2056.953125 3133.821875 " transform="matrix(0.1,0,0,-0.1,0,447.64)"/>
<path style=" stroke:none;fill-rule:nonzero;fill:rgb(100%,100%,100%);fill-opacity:1;" d="M 308.625 164.929688 C 308.625 164.929688 322.34375 159.554688 327.820313 162.84375 C 333.300781 166.132813 337.488281 173.800781 340.367188 185.671875 C 343.246094 197.542969 334.832031 206.226563 327.5625 205.957031 C 320.292969 205.6875 321.546875 200.960938 318.726563 196.144531 C 315.90625 191.332031 312.425781 188.53125 312.191406 188.027344 C 311.960938 187.523438 315.429688 172.3125 308.625 164.929688 "/>
<path style="fill:none;stroke-width:10;stroke-linecap:butt;stroke-linejoin:miter;stroke:rgb(9.799194%,17.999268%,20.799255%);stroke-opacity:1;stroke-miterlimit:10;" d="M 3086.25 2827.103125 C 3086.25 2827.103125 3223.4375 2880.853125 3278.203125 2847.9625 C 3333.007813 2815.071875 3374.882813 2738.392188 3403.671875 2619.68125 C 3432.460938 2500.970313 3348.320313 2414.134375 3275.625 2416.829688 C 3202.929688 2419.525 3215.46875 2466.790625 3187.265625 2514.954688 C 3159.0625 2563.079688 3124.257813 2591.0875 3121.914063 2596.126563 C 3119.609375 2601.165625 3154.296875 2753.275 3086.25 2827.103125 Z M 3086.25 2827.103125 " transform="matrix(0.1,0,0,-0.1,0,447.64)"/>
<path style=" stroke:none;fill-rule:nonzero;fill:rgb(100%,100%,100%);fill-opacity:1;" d="M 327.820313 162.84375 C 326.359375 161.964844 324.304688 161.707031 322.082031 161.796875 C 324.855469 163.851563 330.34375 168.871094 333.929688 178.425781 C 338.898438 191.65625 336.652344 198.613281 334.105469 201.1875 C 331.558594 203.757813 326.1875 204.695313 323.863281 204.417969 C 323.480469 204.371094 323.035156 204.320313 322.558594 204.261719 C 323.554688 205.238281 325.050781 205.863281 327.5625 205.957031 C 334.832031 206.230469 343.246094 197.546875 340.367188 185.671875 C 337.488281 173.800781 333.300781 166.132813 327.820313 162.84375 "/>
<path style="fill:none;stroke-width:10;stroke-linecap:butt;stroke-linejoin:miter;stroke:rgb(9.799194%,17.999268%,20.799255%);stroke-opacity:1;stroke-miterlimit:10;" d="M 3278.203125 2847.9625 C 3263.59375 2856.751563 3243.046875 2859.329688 3220.820313 2858.43125 C 3248.554688 2837.884375 3303.4375 2787.689063 3339.296875 2692.142188 C 3388.984375 2559.8375 3366.523438 2490.267188 3341.054688 2464.525 C 3315.585938 2438.821875 3261.875 2429.446875 3238.632813 2432.220313 C 3234.804688 2432.689063 3230.351563 2433.196875 3225.585938 2433.782813 C 3235.546875 2424.017188 3250.507813 2417.767188 3275.625 2416.829688 C 3348.320313 2414.095313 3432.460938 2500.93125 3403.671875 2619.68125 C 3374.882813 2738.392188 3333.007813 2815.071875 3278.203125 2847.9625 Z M 3278.203125 2847.9625 " transform="matrix(0.1,0,0,-0.1,0,447.64)"/>
<path style=" stroke:none;fill-rule:nonzero;fill:rgb(100%,100%,100%);fill-opacity:1;" d="M 279.617188 198.628906 C 279.617188 198.628906 292.558594 202.34375 304.570313 197.507813 C 316.582031 192.671875 323.660156 184.660156 321.007813 174.886719 C 318.355469 165.105469 313.375 164.765625 302.4375 164.894531 C 291.503906 165.023438 289.3125 165.964844 289.3125 165.964844 C 289.3125 165.964844 288.953125 193.554688 279.617188 198.628906 "/>
<path style="fill:none;stroke-width:10;stroke-linecap:butt;stroke-linejoin:miter;stroke:rgb(9.799194%,17.999268%,20.799255%);stroke-opacity:1;stroke-miterlimit:10;" d="M 2796.171875 2490.110938 C 2796.171875 2490.110938 2925.585938 2452.9625 3045.703125 2501.321875 C 3165.820313 2549.68125 3236.601563 2629.798438 3210.078125 2727.532813 C 3183.554688 2825.345313 3133.75 2828.74375 3024.375 2827.454688 C 2915.039063 2826.165625 2893.125 2816.751563 2893.125 2816.751563 C 2893.125 2816.751563 2889.53125 2540.853125 2796.171875 2490.110938 Z M 2796.171875 2490.110938 " transform="matrix(0.1,0,0,-0.1,0,447.64)"/>
<path style=" stroke:none;fill-rule:nonzero;fill:rgb(34.899902%,88.999939%,65.499878%);fill-opacity:1;" d="M 293.859375 151.84375 C 292.613281 165.019531 281.746094 174.769531 269.585938 173.621094 C 257.421875 172.472656 248.570313 160.859375 249.8125 147.6875 C 251.058594 134.511719 261.925781 124.761719 274.089844 125.90625 C 286.25 127.054688 295.101563 138.667969 293.859375 151.84375 "/>
<path style="fill:none;stroke-width:10;stroke-linecap:butt;stroke-linejoin:miter;stroke:rgb(9.799194%,17.999268%,20.799255%);stroke-opacity:1;stroke-miterlimit:10;" d="M 2938.59375 2957.9625 C 2926.132813 2826.204688 2817.460938 2728.704688 2695.859375 2740.189063 C 2574.21875 2751.673438 2485.703125 2867.80625 2498.125 2999.525 C 2510.585938 3131.282813 2619.257813 3228.782813 2740.898438 3217.3375 C 2862.5 3205.853125 2951.015625 3089.720313 2938.59375 2957.9625 Z M 2938.59375 2957.9625 " transform="matrix(0.1,0,0,-0.1,0,447.64)"/>
<path style=" stroke:none;fill-rule:nonzero;fill:rgb(34.899902%,88.999939%,65.499878%);fill-opacity:1;" d="M 298.546875 179.527344 C 297.421875 191.476563 287.5625 200.320313 276.527344 199.277344 C 265.496094 198.238281 257.46875 187.707031 258.597656 175.753906 C 259.726563 163.800781 269.585938 154.960938 280.613281 156 C 291.648438 157.042969 299.675781 167.574219 298.546875 179.527344 "/>
<path style="fill:none;stroke-width:10;stroke-linecap:butt;stroke-linejoin:miter;stroke:rgb(9.799194%,17.999268%,20.799255%);stroke-opacity:1;stroke-miterlimit:10;" d="M 2985.46875 2681.126563 C 2974.21875 2561.634375 2875.625 2473.196875 2765.273438 2483.626563 C 2654.960938 2494.017188 2574.6875 2599.329688 2585.976563 2718.860938 C 2597.265625 2838.392188 2695.859375 2926.790625 2806.132813 2916.4 C 2916.484375 2905.970313 2996.757813 2800.657813 2985.46875 2681.126563 Z M 2985.46875 2681.126563 " transform="matrix(0.1,0,0,-0.1,0,447.64)"/>
<path style=" stroke:none;fill-rule:nonzero;fill:rgb(100%,100%,100%);fill-opacity:1;" d="M 295.769531 165.265625 C 295.769531 165.265625 296.671875 145.917969 287.214844 135.289063 C 277.761719 124.664063 256.277344 133.355469 252.710938 149.28125 C 249.144531 165.210938 256.6875 189.113281 266.539063 195.28125 C 276.390625 201.453125 284.742188 195.421875 290.347656 186.867188 C 295.949219 178.3125 295.769531 165.265625 295.769531 165.265625 "/>
<path style="fill:none;stroke-width:10;stroke-linecap:butt;stroke-linejoin:miter;stroke:rgb(9.799194%,17.999268%,20.799255%);stroke-opacity:1;stroke-miterlimit:10;" d="M 2957.695313 2823.74375 C 2957.695313 2823.74375 2966.71875 3017.220313 2872.148438 3123.509375 C 2777.617188 3229.759375 2562.773438 3142.845313 2527.109375 2983.5875 C 2491.445313 2824.290625 2566.875 2585.267188 2665.390625 2523.5875 C 2763.90625 2461.86875 2847.421875 2522.18125 2903.476563 2607.728125 C 2959.492188 2693.275 2957.695313 2823.74375 2957.695313 2823.74375 Z M 2957.695313 2823.74375 " transform="matrix(0.1,0,0,-0.1,0,447.64)"/>
<path style=" stroke:none;fill-rule:nonzero;fill:rgb(87.098694%,87.098694%,87.098694%);fill-opacity:1;" d="M 162.257813 111.070313 C 162.257813 111.070313 154.777344 129.175781 152.933594 134.339844 C 151.09375 139.503906 149.164063 145.316406 149.207031 148.675781 C 149.253906 152.035156 151.316406 156.292969 152.933594 156.4375 C 154.550781 156.582031 155.714844 155.496094 155.945313 153.226563 C 156.179688 150.960938 156.078125 150.011719 157.222656 148.765625 C 158.371094 147.519531 161.945313 145.050781 162.402344 144.839844 C 162.859375 144.632813 163.207031 146.355469 162.128906 148.234375 C 161.054688 150.113281 158.675781 151.8125 160.164063 153.730469 C 161.652344 155.648438 164.613281 153.40625 166.199219 151.792969 C 167.785156 150.179688 169.410156 147.441406 170.066406 144.648438 C 170.722656 141.855469 170.402344 135.964844 170.402344 135.964844 L 183.621094 123.480469 C 183.621094 123.480469 166.097656 121.382813 162.257813 111.070313 "/>
<path style="fill:none;stroke-width:10;stroke-linecap:butt;stroke-linejoin:miter;stroke:rgb(9.799194%,17.999268%,20.799255%);stroke-opacity:1;stroke-miterlimit:10;" d="M 1622.578125 3365.696875 C 1622.578125 3365.696875 1547.773438 3184.642188 1529.335938 3133.001563 C 1510.9375 3081.360938 1491.640625 3023.235938 1492.070313 2989.642188 C 1492.539063 2956.048438 1513.164063 2913.470313 1529.335938 2912.025 C 1545.507813 2910.579688 1557.148438 2921.439063 1559.453125 2944.134375 C 1561.796875 2966.790625 1560.78125 2976.282813 1572.226563 2988.74375 C 1583.710938 3001.204688 1619.453125 3025.892188 1624.023438 3028.001563 C 1628.59375 3030.071875 1632.070313 3012.845313 1621.289063 2994.05625 C 1610.546875 2975.267188 1586.757813 2958.275 1601.640625 2939.095313 C 1616.523438 2919.915625 1646.132813 2942.3375 1661.992188 2958.470313 C 1677.851563 2974.603125 1694.101563 3001.985938 1700.664063 3029.915625 C 1707.226563 3057.845313 1704.023438 3116.751563 1704.023438 3116.751563 L 1836.210938 3241.595313 C 1836.210938 3241.595313 1660.976563 3262.571875 1622.578125 3365.696875 Z M 1622.578125 3365.696875 " transform="matrix(0.1,0,0,-0.1,0,447.64)"/>
<path style="fill:none;stroke-width:10;stroke-linecap:butt;stroke-linejoin:miter;stroke:rgb(9.799194%,17.999268%,20.799255%);stroke-opacity:1;stroke-miterlimit:10;" d="M 1630.820313 3009.525 C 1630.820313 3009.525 1628.828125 2983.665625 1676.992188 2982.49375 " transform="matrix(0.1,0,0,-0.1,0,447.64)"/>
<path style="fill:none;stroke-width:10;stroke-linecap:butt;stroke-linejoin:miter;stroke:rgb(9.799194%,17.999268%,20.799255%);stroke-opacity:1;stroke-miterlimit:10;" d="M 1503.59375 3030.93125 C 1503.59375 3030.93125 1517.03125 2981.126563 1572.226563 2988.74375 " transform="matrix(0.1,0,0,-0.1,0,447.64)"/>
<path style="fill:none;stroke-width:10;stroke-linecap:butt;stroke-linejoin:miter;stroke:rgb(9.799194%,17.999268%,20.799255%);stroke-opacity:1;stroke-miterlimit:10;" d="M 1499.257813 2961.517188 C 1499.257813 2961.517188 1531.875 2936.204688 1556.71875 2963.626563 " transform="matrix(0.1,0,0,-0.1,0,447.64)"/>
<path style="fill:none;stroke-width:10;stroke-linecap:butt;stroke-linejoin:miter;stroke:rgb(9.799194%,17.999268%,20.799255%);stroke-opacity:1;stroke-miterlimit:10;" d="M 1567.03125 3209.954688 C 1567.03125 3209.954688 1562.695313 3110.735938 1704.0625 3116.751563 " transform="matrix(0.1,0,0,-0.1,0,447.64)"/>
<path style=" stroke:none;fill-rule:nonzero;fill:rgb(34.899902%,88.999939%,65.499878%);fill-opacity:1;" d="M 165.996094 105.699219 C 165.996094 105.699219 162.480469 105.761719 162.257813 111.070313 C 162.03125 116.378906 166.285156 124.5625 174.4375 125.921875 C 182.589844 127.277344 187.664063 122.402344 189.152344 118.398438 C 190.640625 114.390625 171.578125 102.53125 165.996094 105.699219 "/>
<path style="fill:none;stroke-width:10;stroke-linecap:butt;stroke-linejoin:miter;stroke:rgb(9.799194%,17.999268%,20.799255%);stroke-opacity:1;stroke-miterlimit:10;" d="M 1659.960938 3419.407813 C 1659.960938 3419.407813 1624.804688 3418.782813 1622.578125 3365.696875 C 1620.3125 3312.610938 1662.851563 3230.775 1744.375 3217.18125 C 1825.898438 3203.626563 1876.640625 3252.376563 1891.523438 3292.415625 C 1906.40625 3332.49375 1715.78125 3451.0875 1659.960938 3419.407813 Z M 1659.960938 3419.407813 " transform="matrix(0.1,0,0,-0.1,0,447.64)"/>
<path style=" stroke:none;fill-rule:nonzero;fill:rgb(87.098694%,87.098694%,87.098694%);fill-opacity:1;" d="M 175.15625 91.257813 C 175.15625 91.257813 166.515625 101.640625 165.007813 106.929688 C 163.5 112.21875 167.273438 121.894531 176.851563 123.09375 C 186.429688 124.296875 192.128906 116.3125 192.128906 116.3125 "/>
<path style="fill:none;stroke-width:10;stroke-linecap:butt;stroke-linejoin:miter;stroke:rgb(9.799194%,17.999268%,20.799255%);stroke-opacity:1;stroke-miterlimit:10;" d="M 1751.5625 3563.821875 C 1751.5625 3563.821875 1665.15625 3459.99375 1650.078125 3407.103125 C 1635 3354.2125 1672.734375 3257.454688 1768.515625 3245.4625 C 1864.296875 3233.43125 1921.289063 3313.275 1921.289063 3313.275 Z M 1751.5625 3563.821875 " transform="matrix(0.1,0,0,-0.1,0,447.64)"/>
<path style=" stroke:none;fill-rule:nonzero;fill:rgb(34.899902%,88.999939%,65.499878%);fill-opacity:1;" d="M 180.101563 82.871094 C 180.101563 82.871094 173.925781 88.09375 173.496094 96.5625 C 173.070313 105.035156 180.871094 114.804688 191.050781 113.867188 C 201.230469 112.929688 188.484375 82.46875 180.101563 82.871094 "/>
<path style="fill:none;stroke-width:10;stroke-linecap:butt;stroke-linejoin:miter;stroke:rgb(9.799194%,17.999268%,20.799255%);stroke-opacity:1;stroke-miterlimit:10;" d="M 1801.015625 3647.689063 C 1801.015625 3647.689063 1739.257813 3595.4625 1734.960938 3510.775 C 1730.703125 3426.048438 1808.710938 3328.353125 1910.507813 3337.728125 C 2012.304688 3347.103125 1884.84375 3651.7125 1801.015625 3647.689063 Z M 1801.015625 3647.689063 " transform="matrix(0.1,0,0,-0.1,0,447.64)"/>
<path style=" stroke:none;fill-rule:nonzero;fill:rgb(34.899902%,88.999939%,65.499878%);fill-opacity:1;" d="M 184.355469 89.148438 C 184.355469 89.148438 179.824219 94.605469 182.421875 103.769531 C 185.015625 112.9375 191.492188 117.996094 191.492188 117.996094 C 191.492188 117.996094 204.015625 136.011719 209.285156 138.800781 C 214.550781 141.589844 223.851563 141.703125 242.714844 134.050781 C 261.578125 126.394531 269.003906 115.179688 271.902344 109.421875 C 274.800781 103.664063 257.828125 77.164063 251.96875 73.316406 C 246.105469 69.472656 238.445313 68.222656 232.90625 68.824219 C 227.367188 69.425781 222.230469 70.785156 222.230469 70.785156 "/>
<path style="fill:none;stroke-width:10;stroke-linecap:butt;stroke-linejoin:miter;stroke:rgb(9.799194%,17.999268%,20.799255%);stroke-opacity:1;stroke-miterlimit:10;" d="M 1843.554688 3584.915625 C 1843.554688 3584.915625 1798.242188 3530.345313 1824.21875 3438.704688 C 1850.15625 3347.025 1914.921875 3296.439063 1914.921875 3296.439063 C 1914.921875 3296.439063 2040.15625 3116.282813 2092.851563 3088.392188 C 2145.507813 3060.501563 2238.515625 3059.36875 2427.148438 3135.892188 C 2615.78125 3212.454688 2690.039063 3324.603125 2719.023438 3382.18125 C 2748.007813 3439.759375 2578.28125 3704.759375 2519.6875 3743.235938 C 2461.054688 3781.673438 2384.453125 3794.173438 2329.0625 3788.157813 C 2273.671875 3782.142188 2222.304688 3768.548438 2222.304688 3768.548438 Z M 1843.554688 3584.915625 " transform="matrix(0.1,0,0,-0.1,0,447.64)"/>
<path style=" stroke:none;fill-rule:nonzero;fill:rgb(100%,100%,100%);fill-opacity:1;" d="M 181.003906 86.136719 C 181.003906 86.136719 176.472656 91.59375 179.070313 100.757813 C 181.667969 109.925781 188.140625 114.984375 188.140625 114.984375 C 188.140625 114.984375 200.664063 133 205.933594 135.789063 C 211.199219 138.578125 220.5 138.691406 239.363281 131.035156 C 258.226563 123.382813 265.65625 112.167969 268.550781 106.40625 C 271.449219 100.652344 254.480469 74.152344 248.617188 70.304688 C 242.753906 66.457031 235.09375 65.210938 229.554688 65.808594 C 224.015625 66.414063 218.878906 67.773438 218.878906 67.773438 "/>
<path style="fill:none;stroke-width:10;stroke-linecap:butt;stroke-linejoin:miter;stroke:rgb(9.799194%,17.999268%,20.799255%);stroke-opacity:1;stroke-miterlimit:10;" d="M 1810.039063 3615.032813 C 1810.039063 3615.032813 1764.726563 3560.4625 1790.703125 3468.821875 C 1816.679688 3377.142188 1881.40625 3326.55625 1881.40625 3326.55625 C 1881.40625 3326.55625 2006.640625 3146.4 2059.335938 3118.509375 C 2111.992188 3090.61875 2205 3089.485938 2393.632813 3166.048438 C 2582.265625 3242.571875 2656.5625 3354.720313 2685.507813 3412.3375 C 2714.492188 3469.876563 2544.804688 3734.876563 2486.171875 3773.353125 C 2427.539063 3811.829688 2350.9375 3824.290625 2295.546875 3818.314063 C 2240.15625 3812.259375 2188.789063 3798.665625 2188.789063 3798.665625 Z M 1810.039063 3615.032813 " transform="matrix(0.1,0,0,-0.1,0,447.64)"/>
<path style=" stroke:none;fill-rule:nonzero;fill:rgb(34.899902%,88.999939%,65.499878%);fill-opacity:1;" d="M 227.21875 64.960938 C 228.917969 80.601563 217.617188 94.660156 201.972656 96.359375 C 186.332031 98.058594 172.273438 86.757813 170.574219 71.113281 C 168.875 55.472656 180.179688 41.414063 195.820313 39.714844 C 211.464844 38.015625 225.519531 49.320313 227.21875 64.960938 "/>
<path style="fill:none;stroke-width:10;stroke-linecap:butt;stroke-linejoin:miter;stroke:rgb(9.799194%,17.999268%,20.799255%);stroke-opacity:1;stroke-miterlimit:10;" d="M 2272.1875 3826.790625 C 2289.179688 3670.384375 2176.171875 3529.798438 2019.726563 3512.80625 C 1863.320313 3495.814063 1722.734375 3608.821875 1705.742188 3765.267188 C 1688.75 3921.673438 1801.796875 4062.259375 1958.203125 4079.251563 C 2114.648438 4096.24375 2255.195313 3983.196875 2272.1875 3826.790625 Z M 2272.1875 3826.790625 " transform="matrix(0.1,0,0,-0.1,0,447.64)"/>
<path style=" stroke:none;fill-rule:nonzero;fill:rgb(67.498779%,67.498779%,67.498779%);fill-opacity:1;" d="M 226.78125 57.148438 C 228.699219 74.808594 215.9375 90.683594 198.273438 92.601563 C 180.613281 94.523438 164.738281 81.757813 162.820313 64.097656 C 160.898438 46.433594 173.664063 30.558594 191.328125 28.640625 C 208.988281 26.722656 224.863281 39.484375 226.78125 57.148438 "/>
<path style="fill:none;stroke-width:10;stroke-linecap:butt;stroke-linejoin:miter;stroke:rgb(9.799194%,17.999268%,20.799255%);stroke-opacity:1;stroke-miterlimit:10;" d="M 2267.8125 3904.915625 C 2286.992188 3728.314063 2159.375 3569.564063 1982.734375 3550.384375 C 1806.132813 3531.165625 1647.382813 3658.821875 1628.203125 3835.423438 C 1608.984375 4012.064063 1736.640625 4170.814063 1913.28125 4189.99375 C 2089.882813 4209.173438 2248.632813 4081.55625 2267.8125 3904.915625 Z M 2267.8125 3904.915625 " transform="matrix(0.1,0,0,-0.1,0,447.64)"/>
<path style=" stroke:none;fill-rule:nonzero;fill:rgb(9.799194%,17.999268%,20.799255%);fill-opacity:1;" d="M 216.867188 65.171875 C 217.199219 64.503906 217.628906 63.3125 217.503906 61.78125 C 217.308594 59.367188 214.597656 54.90625 213.46875 53.699219 C 212.339844 52.492188 210.605469 53.917969 210.605469 53.917969 L 208.605469 50.324219 C 203.785156 41.664063 192.855469 38.550781 184.195313 43.367188 C 175.53125 48.1875 172.417969 59.117188 177.238281 67.777344 L 181.382813 75.226563 L 179.0625 71.46875 C 179.0625 71.46875 176.9375 72.191406 177.371094 73.789063 C 177.800781 75.386719 180.160156 80.039063 182.109375 81.480469 C 183.492188 82.503906 184.871094 82.707031 185.5625 82.738281 L 191.03125 92.566406 C 193.390625 92.84375 195.8125 92.871094 198.273438 92.601563 C 209.101563 91.425781 218.078125 85.003906 222.972656 76.140625 "/>
<path style="fill:none;stroke-width:10;stroke-linecap:butt;stroke-linejoin:miter;stroke:rgb(9.799194%,17.999268%,20.799255%);stroke-opacity:1;stroke-miterlimit:10;" d="M 2168.671875 3824.68125 C 2171.992188 3831.360938 2176.289063 3843.275 2175.039063 3858.5875 C 2173.085938 3882.728125 2145.976563 3927.3375 2134.6875 3939.407813 C 2123.398438 3951.478125 2106.054688 3937.220313 2106.054688 3937.220313 L 2086.054688 3973.157813 C 2037.851563 4059.759375 1928.554688 4090.892188 1841.953125 4042.728125 C 1755.3125 3994.525 1724.179688 3885.228125 1772.382813 3798.626563 L 1813.828125 3724.134375 L 1790.625 3761.7125 C 1790.625 3761.7125 1769.375 3754.485938 1773.710938 3738.509375 C 1778.007813 3722.532813 1801.601563 3676.009375 1821.09375 3661.595313 C 1834.921875 3651.360938 1848.710938 3649.329688 1855.625 3649.017188 L 1910.3125 3550.735938 C 1933.90625 3547.9625 1958.125 3547.689063 1982.734375 3550.384375 C 2091.015625 3562.142188 2180.78125 3626.360938 2229.726563 3714.99375 Z M 2168.671875 3824.68125 " transform="matrix(0.1,0,0,-0.1,0,447.64)"/>
<path style=" stroke:none;fill-rule:nonzero;fill:rgb(100%,100%,100%);fill-opacity:1;" d="M 208.449219 56.179688 C 204.804688 49.636719 196.546875 47.28125 190.003906 50.925781 L 187.550781 52.285156 C 181.007813 55.929688 178.65625 64.1875 182.296875 70.730469 L 194.570313 92.789063 C 195.792969 92.796875 197.03125 92.738281 198.273438 92.601563 C 207.882813 91.558594 216.03125 86.375 221.164063 79.027344 "/>
<path style="fill:none;stroke-width:10;stroke-linecap:butt;stroke-linejoin:miter;stroke:rgb(9.799194%,17.999268%,20.799255%);stroke-opacity:1;stroke-miterlimit:10;" d="M 2084.492188 3914.603125 C 2048.046875 3980.032813 1965.46875 4003.5875 1900.039063 3967.142188 L 1875.507813 3953.548438 C 1810.078125 3917.103125 1786.5625 3834.525 1822.96875 3769.095313 L 1945.703125 3548.509375 C 1957.929688 3548.43125 1970.3125 3549.017188 1982.734375 3550.384375 C 2078.828125 3560.814063 2160.3125 3612.65 2211.640625 3686.126563 Z M 2084.492188 3914.603125 " transform="matrix(0.1,0,0,-0.1,0,447.64)"/>
<path style=" stroke:none;fill-rule:nonzero;fill:rgb(9.799194%,17.999268%,20.799255%);fill-opacity:1;" d="M 193.363281 69.535156 C 193.824219 70.363281 193.792969 71.261719 193.289063 71.539063 C 192.789063 71.816406 192.011719 71.371094 191.550781 70.546875 C 191.089844 69.71875 191.121094 68.820313 191.621094 68.539063 C 192.121094 68.261719 192.902344 68.707031 193.363281 69.535156 "/>
<path style=" stroke:none;fill-rule:nonzero;fill:rgb(9.799194%,17.999268%,20.799255%);fill-opacity:1;" d="M 203.527344 63.878906 C 203.988281 64.707031 203.953125 65.605469 203.453125 65.882813 C 202.953125 66.160156 202.175781 65.714844 201.714844 64.886719 C 201.253906 64.058594 201.285156 63.164063 201.785156 62.886719 C 202.285156 62.605469 203.066406 63.050781 203.527344 63.878906 "/>
<path style="fill:none;stroke-width:10;stroke-linecap:butt;stroke-linejoin:miter;stroke:rgb(9.799194%,17.999268%,20.799255%);stroke-opacity:1;stroke-miterlimit:10;" d="M 1985.351563 3824.173438 L 2037.617188 3759.134375 L 1990.117188 3737.298438 " transform="matrix(0.1,0,0,-0.1,0,447.64)"/>
<path style=" stroke:none;fill-rule:nonzero;fill:rgb(9.799194%,17.999268%,20.799255%);fill-opacity:1;" d="M 206.289063 77.089844 C 206.746094 77.910156 206.449219 78.949219 205.628906 79.40625 C 204.804688 79.863281 203.765625 79.570313 203.308594 78.746094 C 202.851563 77.925781 203.144531 76.886719 203.96875 76.429688 C 204.789063 75.972656 205.828125 76.265625 206.289063 77.089844 "/>
<path style="fill:none;stroke-width:10;stroke-linecap:butt;stroke-linejoin:miter;stroke:rgb(9.799194%,17.999268%,20.799255%);stroke-opacity:1;stroke-miterlimit:10;" d="M 1862.851563 3792.728125 C 1862.851563 3792.728125 1870.429688 3824.485938 1912.5 3827.220313 " transform="matrix(0.1,0,0,-0.1,0,447.64)"/>
<path style="fill:none;stroke-width:10;stroke-linecap:butt;stroke-linejoin:miter;stroke:rgb(9.799194%,17.999268%,20.799255%);stroke-opacity:1;stroke-miterlimit:10;" d="M 1978.125 3866.048438 C 1978.125 3866.048438 1989.21875 3899.759375 2033.632813 3890.032813 " transform="matrix(0.1,0,0,-0.1,0,447.64)"/>
<path style="fill:none;stroke-width:10;stroke-linecap:butt;stroke-linejoin:miter;stroke:rgb(9.799194%,17.999268%,20.799255%);stroke-opacity:1;stroke-miterlimit:10;" d="M 2007.929688 3598.040625 C 2007.929688 3598.040625 2043.398438 3587.9625 2068.320313 3592.65 C 2093.242188 3597.3375 2113.28125 3610.775 2122.617188 3622.884375 C 2131.953125 3634.954688 2144.609375 3674.095313 2144.609375 3674.095313 " transform="matrix(0.1,0,0,-0.1,0,447.64)"/>
<path style=" stroke:none;fill-rule:nonzero;fill:rgb(100%,100%,100%);fill-opacity:1;" d="M 171.132813 79.203125 C 169.214844 61.542969 181.976563 45.667969 199.640625 43.75 C 209.84375 42.640625 219.441406 46.4375 226.105469 53.242188 C 222.449219 37.644531 207.65625 26.867188 191.328125 28.640625 C 173.664063 30.558594 160.902344 46.433594 162.820313 64.097656 C 163.628906 71.554688 166.9375 78.136719 171.808594 83.109375 C 171.511719 81.839844 171.277344 80.539063 171.132813 79.203125 "/>
<path style="fill:none;stroke-width:10;stroke-linecap:butt;stroke-linejoin:miter;stroke:rgb(9.799194%,17.999268%,20.799255%);stroke-opacity:1;stroke-miterlimit:10;" d="M 1711.328125 3684.36875 C 1692.148438 3860.970313 1819.765625 4019.720313 1996.40625 4038.9 C 2098.4375 4049.99375 2194.414063 4012.025 2261.054688 3943.978125 C 2224.492188 4099.954688 2076.5625 4207.728125 1913.28125 4189.99375 C 1736.640625 4170.814063 1609.023438 4012.064063 1628.203125 3835.423438 C 1636.289063 3760.853125 1669.375 3695.032813 1718.085938 3645.30625 C 1715.117188 3658.001563 1712.773438 3671.009375 1711.328125 3684.36875 Z M 1711.328125 3684.36875 " transform="matrix(0.1,0,0,-0.1,0,447.64)"/>
<path style=" stroke:none;fill-rule:nonzero;fill:rgb(34.899902%,88.999939%,65.499878%);fill-opacity:1;" d="M 260.511719 80.324219 C 261.488281 89.3125 255.832031 97.296875 247.878906 98.160156 C 239.925781 99.023438 232.6875 92.4375 231.710938 83.453125 C 230.734375 74.46875 236.390625 66.484375 244.34375 65.621094 C 252.296875 64.757813 259.535156 71.34375 260.511719 80.324219 "/>
<path style="fill:none;stroke-width:10;stroke-linecap:butt;stroke-linejoin:miter;stroke:rgb(9.799194%,17.999268%,20.799255%);stroke-opacity:1;stroke-miterlimit:10;" d="M 2605.117188 3673.157813 C 2614.882813 3583.275 2558.320313 3503.43125 2478.789063 3494.798438 C 2399.257813 3486.165625 2326.875 3552.025 2317.109375 3641.86875 C 2307.34375 3731.7125 2363.90625 3811.55625 2443.4375 3820.189063 C 2522.96875 3828.821875 2595.351563 3762.9625 2605.117188 3673.157813 Z M 2605.117188 3673.157813 " transform="matrix(0.1,0,0,-0.1,0,447.64)"/>
<path style=" stroke:none;fill-rule:nonzero;fill:rgb(100%,100%,100%);fill-opacity:1;" d="M 279.449219 68.953125 C 279.449219 68.953125 271.65625 66.859375 259.015625 66.550781 C 246.371094 66.242188 238.941406 67.46875 236.542969 73.753906 C 234.144531 80.039063 234.6875 90.207031 242.476563 93.5625 C 246.824219 95.4375 253.210938 94.359375 257.855469 93.292969 C 262.503906 92.226563 273.898438 87.488281 277.480469 81.777344 C 281.0625 76.0625 281.132813 71.570313 279.449219 68.953125 "/>
<path style="fill:none;stroke-width:10;stroke-linecap:butt;stroke-linejoin:miter;stroke:rgb(9.799194%,17.999268%,20.799255%);stroke-opacity:1;stroke-miterlimit:10;" d="M 2794.492188 3786.86875 C 2794.492188 3786.86875 2716.5625 3807.80625 2590.15625 3810.892188 C 2463.710938 3813.978125 2389.414063 3801.7125 2365.429688 3738.860938 C 2341.445313 3676.009375 2346.875 3574.329688 2424.765625 3540.775 C 2468.242188 3522.025 2532.109375 3532.80625 2578.554688 3543.470313 C 2625.039063 3554.134375 2738.984375 3601.517188 2774.804688 3658.626563 C 2810.625 3715.775 2811.328125 3760.696875 2794.492188 3786.86875 Z M 2794.492188 3786.86875 " transform="matrix(0.1,0,0,-0.1,0,447.64)"/>
<path style=" stroke:none;fill-rule:nonzero;fill:rgb(34.899902%,88.999939%,65.499878%);fill-opacity:1;" d="M 292.683594 78.582031 C 292.683594 78.582031 288.503906 71.050781 280.710938 68.957031 C 272.917969 66.859375 265.769531 71.980469 262.527344 76.957031 C 259.285156 81.929688 260.726563 83.597656 260.726563 83.597656 C 260.726563 83.597656 272.152344 77.871094 278.0625 76.808594 C 283.96875 75.746094 292.683594 78.582031 292.683594 78.582031 "/>
<path style="fill:none;stroke-width:10;stroke-linecap:butt;stroke-linejoin:miter;stroke:rgb(9.799194%,17.999268%,20.799255%);stroke-opacity:1;stroke-miterlimit:10;" d="M 2926.835938 3690.579688 C 2926.835938 3690.579688 2885.039063 3765.892188 2807.109375 3786.829688 C 2729.179688 3807.80625 2657.695313 3756.595313 2625.273438 3706.829688 C 2592.851563 3657.103125 2607.265625 3640.423438 2607.265625 3640.423438 C 2607.265625 3640.423438 2721.523438 3697.689063 2780.625 3708.314063 C 2839.6875 3718.939063 2926.835938 3690.579688 2926.835938 3690.579688 Z M 2926.835938 3690.579688 " transform="matrix(0.1,0,0,-0.1,0,447.64)"/>
<path style=" stroke:none;fill-rule:nonzero;fill:rgb(100%,100%,100%);fill-opacity:1;" d="M 260.4375 88.671875 C 260.4375 88.671875 258.605469 83.40625 265.988281 76.578125 C 273.371094 69.753906 286.945313 72.199219 291.363281 76.765625 C 295.78125 81.328125 295.253906 89.371094 291.753906 93.253906 C 288.253906 97.136719 284.746094 98.355469 284.746094 98.355469 C 284.746094 98.355469 277.867188 86.636719 260.4375 88.671875 "/>
<path style="fill:none;stroke-width:10;stroke-linecap:butt;stroke-linejoin:miter;stroke:rgb(9.799194%,17.999268%,20.799255%);stroke-opacity:1;stroke-miterlimit:10;" d="M 2604.375 3589.68125 C 2604.375 3589.68125 2586.054688 3642.3375 2659.882813 3710.61875 C 2733.710938 3778.860938 2869.453125 3754.407813 2913.632813 3708.74375 C 2957.8125 3663.11875 2952.539063 3582.689063 2917.539063 3543.860938 C 2882.539063 3505.032813 2847.460938 3492.845313 2847.460938 3492.845313 C 2847.460938 3492.845313 2778.671875 3610.032813 2604.375 3589.68125 Z M 2604.375 3589.68125 " transform="matrix(0.1,0,0,-0.1,0,447.64)"/>
<path style=" stroke:none;fill-rule:nonzero;fill:rgb(100%,100%,100%);fill-opacity:1;" d="M 254.273438 99.007813 C 254.273438 99.007813 257.109375 91.554688 260.4375 88.671875 C 263.765625 85.785156 273.71875 84.566406 281.140625 87.121094 C 288.5625 89.675781 287.25 98.226563 285.859375 100.898438 C 284.46875 103.570313 280.21875 105.714844 280.21875 105.714844 "/>
<path style="fill:none;stroke-width:10;stroke-linecap:butt;stroke-linejoin:miter;stroke:rgb(9.799194%,17.999268%,20.799255%);stroke-opacity:1;stroke-miterlimit:10;" d="M 2542.734375 3486.321875 C 2542.734375 3486.321875 2571.09375 3560.853125 2604.375 3589.68125 C 2637.65625 3618.548438 2737.1875 3630.735938 2811.40625 3605.189063 C 2885.625 3579.642188 2872.5 3494.134375 2858.59375 3467.415625 C 2844.6875 3440.696875 2802.1875 3419.251563 2802.1875 3419.251563 Z M 2542.734375 3486.321875 " transform="matrix(0.1,0,0,-0.1,0,447.64)"/>
<path style=" stroke:none;fill-rule:nonzero;fill:rgb(100%,100%,100%);fill-opacity:1;" d="M 255.125 97.792969 C 255.125 97.792969 253.617188 98.097656 252.105469 99.660156 C 250.59375 101.226563 250.113281 101.980469 247.082031 103.710938 C 244.046875 105.441406 240.832031 105.507813 242.023438 108.742188 C 243.214844 111.976563 247.644531 111.492188 249.832031 110.976563 C 252.015625 110.460938 252.910156 109.660156 254.589844 108.355469 C 256.269531 107.054688 257.539063 98.089844 257.632813 97.660156 C 257.726563 97.230469 255.125 97.792969 255.125 97.792969 "/>
<path style="fill:none;stroke-width:10;stroke-linecap:butt;stroke-linejoin:miter;stroke:rgb(9.799194%,17.999268%,20.799255%);stroke-opacity:1;stroke-miterlimit:10;" d="M 2551.25 3498.470313 C 2551.25 3498.470313 2536.171875 3495.423438 2521.054688 3479.798438 C 2505.9375 3464.134375 2501.132813 3456.595313 2470.820313 3439.290625 C 2440.46875 3421.985938 2408.320313 3421.321875 2420.234375 3388.978125 C 2432.148438 3356.634375 2476.445313 3361.478125 2498.320313 3366.634375 C 2520.15625 3371.790625 2529.101563 3379.798438 2545.898438 3392.845313 C 2562.695313 3405.853125 2575.390625 3495.501563 2576.328125 3499.798438 C 2577.265625 3504.095313 2551.25 3498.470313 2551.25 3498.470313 Z M 2551.25 3498.470313 " transform="matrix(0.1,0,0,-0.1,0,447.64)"/>
<path style=" stroke:none;fill-rule:nonzero;fill:rgb(100%,100%,100%);fill-opacity:1;" d="M 263.066406 94.828125 C 263.066406 94.828125 258.609375 93.769531 256.421875 95.550781 C 254.234375 97.328125 254.414063 104.175781 254.589844 108.359375 C 254.765625 112.542969 256.246094 115.882813 257.847656 116.410156 C 259.445313 116.933594 261.089844 116.617188 261.722656 115.988281 C 262.355469 115.359375 261.691406 109.265625 262.136719 104.316406 C 262.578125 99.363281 263.066406 94.828125 263.066406 94.828125 "/>
<path style="fill:none;stroke-width:10;stroke-linecap:butt;stroke-linejoin:miter;stroke:rgb(9.799194%,17.999268%,20.799255%);stroke-opacity:1;stroke-miterlimit:10;" d="M 2630.664063 3528.11875 C 2630.664063 3528.11875 2586.09375 3538.704688 2564.21875 3520.892188 C 2542.34375 3503.11875 2544.140625 3434.642188 2545.898438 3392.80625 C 2547.65625 3350.970313 2562.460938 3317.571875 2578.476563 3312.298438 C 2594.453125 3307.064063 2610.898438 3310.228125 2617.226563 3316.517188 C 2623.554688 3322.80625 2616.914063 3383.74375 2621.367188 3433.235938 C 2625.78125 3482.767188 2630.664063 3528.11875 2630.664063 3528.11875 Z M 2630.664063 3528.11875 " transform="matrix(0.1,0,0,-0.1,0,447.64)"/>
<path style=" stroke:none;fill-rule:nonzero;fill:rgb(100%,100%,100%);fill-opacity:1;" d="M 263.066406 94.828125 C 263.066406 94.828125 261.070313 99.667969 260.488281 104.636719 C 259.910156 109.601563 262.597656 116.3125 263.644531 116.902344 C 264.6875 117.488281 267.609375 117.308594 268.289063 115.835938 C 268.972656 114.359375 268.472656 109.347656 268.550781 106.410156 C 268.628906 103.46875 270.042969 97.152344 269.832031 95.214844 C 269.621094 93.277344 265.253906 93.050781 263.066406 94.828125 "/>
<path style="fill:none;stroke-width:10;stroke-linecap:butt;stroke-linejoin:miter;stroke:rgb(9.799194%,17.999268%,20.799255%);stroke-opacity:1;stroke-miterlimit:10;" d="M 2630.664063 3528.11875 C 2630.664063 3528.11875 2610.703125 3479.720313 2604.882813 3430.032813 C 2599.101563 3380.384375 2625.976563 3313.275 2636.445313 3307.376563 C 2646.875 3301.517188 2676.09375 3303.314063 2682.890625 3318.040625 C 2689.726563 3332.80625 2684.726563 3382.923438 2685.507813 3412.298438 C 2686.289063 3441.7125 2700.429688 3504.876563 2698.320313 3524.251563 C 2696.210938 3543.626563 2652.539063 3545.892188 2630.664063 3528.11875 Z M 2630.664063 3528.11875 " transform="matrix(0.1,0,0,-0.1,0,447.64)"/>
<path style=" stroke:none;fill-rule:nonzero;fill:rgb(100%,100%,100%);fill-opacity:1;" d="M 269.832031 95.214844 C 269.832031 95.214844 272.496094 93.945313 274.433594 94.996094 C 276.367188 96.046875 276.820313 98.9375 276.558594 100.367188 C 276.292969 101.796875 275.394531 110.300781 274.773438 112.328125 C 274.152344 114.355469 272.582031 115.367188 271.308594 115.226563 C 270.03125 115.085938 269.15625 113.5 268.960938 111.699219 C 268.765625 109.898438 268.550781 106.410156 268.550781 106.410156 "/>
<path style="fill:none;stroke-width:10;stroke-linecap:butt;stroke-linejoin:miter;stroke:rgb(9.799194%,17.999268%,20.799255%);stroke-opacity:1;stroke-miterlimit:10;" d="M 2698.320313 3524.251563 C 2698.320313 3524.251563 2724.960938 3536.946875 2744.335938 3526.439063 C 2763.671875 3515.93125 2768.203125 3487.025 2765.585938 3472.728125 C 2762.929688 3458.43125 2753.945313 3373.392188 2747.734375 3353.11875 C 2741.523438 3332.845313 2725.820313 3322.728125 2713.085938 3324.134375 C 2700.3125 3325.540625 2691.5625 3341.4 2689.609375 3359.407813 C 2687.65625 3377.415625 2685.507813 3412.298438 2685.507813 3412.298438 Z M 2698.320313 3524.251563 " transform="matrix(0.1,0,0,-0.1,0,447.64)"/>
<path style=" stroke:none;fill-rule:nonzero;fill:rgb(100%,100%,100%);fill-opacity:1;" d="M 276.546875 97.707031 C 276.546875 97.707031 280.144531 98.578125 281.203125 99.300781 C 282.265625 100.027344 282.65625 102.367188 281.925781 105.949219 C 281.195313 109.53125 280.160156 111.605469 278.496094 111.785156 C 276.835938 111.964844 275.488281 109.871094 275.492188 108.609375 C 275.492188 107.347656 276.863281 100.613281 276.546875 97.707031 "/>
<path style="fill:none;stroke-width:10;stroke-linecap:butt;stroke-linejoin:miter;stroke:rgb(9.799194%,17.999268%,20.799255%);stroke-opacity:1;stroke-miterlimit:10;" d="M 2765.46875 3499.329688 C 2765.46875 3499.329688 2801.445313 3490.61875 2812.03125 3483.392188 C 2822.65625 3476.126563 2826.5625 3452.728125 2819.257813 3416.907813 C 2811.953125 3381.0875 2801.601563 3360.345313 2784.960938 3358.548438 C 2768.359375 3356.751563 2754.882813 3377.689063 2754.921875 3390.30625 C 2754.921875 3402.923438 2768.632813 3470.267188 2765.46875 3499.329688 Z M 2765.46875 3499.329688 " transform="matrix(0.1,0,0,-0.1,0,447.64)"/>
<path style=" stroke:none;fill-rule:nonzero;fill:rgb(34.899902%,88.999939%,65.499878%);fill-opacity:1;" d="M 229.085938 100.414063 C 231.335938 104.050781 230.539063 108.617188 227.308594 110.621094 C 224.074219 112.621094 219.628906 111.296875 217.378906 107.660156 C 215.128906 104.023438 215.925781 99.453125 219.15625 97.449219 C 222.390625 95.449219 226.835938 96.777344 229.085938 100.414063 "/>
<path style="fill:none;stroke-width:10;stroke-linecap:butt;stroke-linejoin:miter;stroke:rgb(9.799194%,17.999268%,20.799255%);stroke-opacity:1;stroke-miterlimit:10;" d="M 2290.859375 3472.259375 C 2313.359375 3435.892188 2305.390625 3390.228125 2273.085938 3370.189063 C 2240.742188 3350.189063 2196.289063 3363.43125 2173.789063 3399.798438 C 2151.289063 3436.165625 2159.257813 3481.86875 2191.5625 3501.907813 C 2223.90625 3521.907813 2268.359375 3508.626563 2290.859375 3472.259375 Z M 2290.859375 3472.259375 " transform="matrix(0.1,0,0,-0.1,0,447.64)"/>
<path style=" stroke:none;fill-rule:nonzero;fill:rgb(9.799194%,17.999268%,20.799255%);fill-opacity:1;" d="M 211.363281 112.65625 C 212.941406 115.203125 212.382813 118.40625 210.117188 119.808594 C 207.851563 121.214844 204.738281 120.28125 203.160156 117.734375 C 201.578125 115.183594 202.136719 111.984375 204.40625 110.578125 C 206.671875 109.175781 209.785156 110.105469 211.363281 112.65625 "/>
<path style=" stroke:none;fill-rule:nonzero;fill:rgb(67.498779%,67.498779%,67.498779%);fill-opacity:1;" d="M 225.871094 118.746094 C 227.449219 121.292969 226.894531 124.496094 224.628906 125.898438 C 222.363281 127.304688 219.246094 126.371094 217.667969 123.824219 C 216.089844 121.273438 216.648438 118.070313 218.914063 116.667969 C 221.179688 115.265625 224.296875 116.195313 225.871094 118.746094 "/>
<path style="fill:none;stroke-width:10;stroke-linecap:butt;stroke-linejoin:miter;stroke:rgb(9.799194%,17.999268%,20.799255%);stroke-opacity:1;stroke-miterlimit:10;" d="M 2258.710938 3288.939063 C 2274.492188 3263.470313 2268.945313 3231.439063 2246.289063 3217.415625 C 2223.632813 3203.353125 2192.460938 3212.689063 2176.679688 3238.157813 C 2160.898438 3263.665625 2166.484375 3295.696875 2189.140625 3309.720313 C 2211.796875 3323.74375 2242.96875 3314.446875 2258.710938 3288.939063 Z M 2258.710938 3288.939063 " transform="matrix(0.1,0,0,-0.1,0,447.64)"/>
</g>
</svg>
